<?xml version="1.0" encoding="UTF-8" standalone="no"?>
<!-- Created with Inkscape (http://www.inkscape.org/) -->

<svg
   xmlns:dc="http://purl.org/dc/elements/1.1/"
   xmlns:cc="http://creativecommons.org/ns#"
   xmlns:rdf="http://www.w3.org/1999/02/22-rdf-syntax-ns#"
   xmlns:svg="http://www.w3.org/2000/svg"
   xmlns="http://www.w3.org/2000/svg"
   xmlns:sodipodi="http://sodipodi.sourceforge.net/DTD/sodipodi-0.dtd"
   xmlns:inkscape="http://www.inkscape.org/namespaces/inkscape"
   width="128"
   height="128"
   id="svg2"
   version="1.1"
   inkscape:version="0.91 r13725"
   sodipodi:docname="logo.svg"
   inkscape:export-filename="C:\dev\Community\FeatureToggle\etc\logo.png"
   inkscape:export-xdpi="90"
   inkscape:export-ydpi="90">
  <defs
     id="defs4" />
  <sodipodi:namedview
     id="base"
     pagecolor="#ffffff"
     bordercolor="#666666"
     borderopacity="1.0"
     inkscape:pageopacity="1"
     inkscape:pageshadow="2"
     inkscape:zoom="1.979899"
     inkscape:cx="-93.892076"
     inkscape:cy="128.64387"
     inkscape:document-units="px"
     inkscape:current-layer="layer1"
     showgrid="false"
     showguides="true"
     inkscape:guide-bbox="true"
     inkscape:window-width="1587"
     inkscape:window-height="696"
     inkscape:window-x="252"
     inkscape:window-y="214"
     inkscape:window-maximized="0">
    <sodipodi:guide
       orientation="0,1"
       position="-185.86807,128"
       id="guide3037" />
    <sodipodi:guide
       orientation="0,1"
       position="-215.162,0"
       id="guide3039" />
    <sodipodi:guide
       orientation="1,0"
       position="0,140.4112"
       id="guide3043" />
    <sodipodi:guide
       orientation="1,0"
       position="128,164.14979"
       id="guide3045" />
  </sodipodi:namedview>
  <metadata
     id="metadata7">
    <rdf:RDF>
      <cc:Work
         rdf:about="">
        <dc:format>image/svg+xml</dc:format>
        <dc:type
           rdf:resource="http://purl.org/dc/dcmitype/StillImage" />
        <dc:title />
      </cc:Work>
    </rdf:RDF>
  </metadata>
  <g
     inkscape:label="Layer 1"
     inkscape:groupmode="layer"
     id="layer1"
     transform="translate(0,-924.36218)">
    <rect
       style="fill:#ffffff"
       y="929.18677"
       x="172.11072"
       height="0"
       width="0"
       id="Rect" />
    <rect
       style="fill:#e6e6e6;fill-opacity:1;stroke:none"
       id="rect3047-1"
       width="128"
       height="128"
       x="-245.82747"
       y="788.85699" />
    <path
       inkscape:connector-curvature="0"
       style="fill:#808080"
       d="m -149.32074,858.05738 23.94119,20.5194 -23.94119,20.5184 0,-13.6791 -4.02896,0 c -12.72289,0 -22.09196,-5.702 -29.82585,-13.2481 2.98481,-3.51 5.68825,-7.0516 8.20014,-10.3566 0.58113,-0.7617 1.1548,-1.5171 1.73059,-2.2685 5.71978,5.9215 11.87266,9.9154 19.89512,9.9154 l 4.02896,0 z"
       id="path3035-7" />
    <path
       inkscape:connector-curvature="0"
       style="fill:#808080"
       d="m -239.38177,817.01428 11.93122,0 c 12.14346,0 21.23072,5.1978 28.75925,12.2325 -2.54869,3.0757 -4.90554,6.165 -7.13202,9.0943 -0.91138,1.2002 -1.81767,2.3868 -2.71356,3.5486 -5.44636,-5.3645 -11.34881,-8.9131 -18.91367,-8.9131 l -11.93122,0 z"
       id="path3033-4" />
    <path
       inkscape:connector-curvature="0"
       style="fill:#008ef1;fill-opacity:1"
       d="m -149.32079,802.26798 23.94124,20.5192 -23.94124,20.5231 0,-11.4739 -4.029,0 c -13.14372,0 -21.27948,10.6943 -30.69934,23.0727 -10.47368,13.7667 -22.34397,29.3703 -43.40119,29.3703 l -11.93145,0 0,-15.9618 11.93145,0 c 13.14587,0 21.27979,-10.695 30.701,-23.0733 10.47179,-13.763 22.34452,-29.3699 43.39953,-29.3699 l 4.029,0 z"
       id="path2990-0" />
    <rect
       style="fill:#e6e6e6;fill-opacity:1;stroke:none"
       id="rect3047-9"
       width="128"
       height="128"
       x="-388.25897"
       y="786.83679" />
    <path
       inkscape:connector-curvature="0"
       style="fill:#808080"
       d="m -291.75225,856.0371 23.94119,20.5194 -23.94119,20.5184 0,-13.6791 -4.02896,0 c -12.72289,0 -22.09196,-5.702 -29.82584,-13.2481 2.98481,-3.51 5.68825,-7.0516 8.20013,-10.3566 0.58113,-0.7618 1.1548,-1.5171 1.7306,-2.2685 5.71977,5.9215 11.87265,9.9154 19.89511,9.9154 l 4.02896,0 z"
       id="path3035-4" />
    <path
       inkscape:connector-curvature="0"
       style="fill:#808080"
       d="m -381.81327,814.9939 11.93121,0 c 12.14347,0 21.23072,5.1978 28.75925,12.2326 -2.54868,3.0757 -4.90554,6.165 -7.13202,9.0943 -0.91138,1.2002 -1.81767,2.3868 -2.71356,3.5486 -5.44636,-5.3645 -11.34881,-8.9131 -18.91367,-8.9131 l -11.93121,0 z"
       id="path3033-8" />
    <path
       inkscape:connector-curvature="0"
       style="fill:#d500f1;fill-opacity:1"
       d="m -291.75229,800.2477 23.94123,20.5192 -23.94123,20.5231 0,-11.4739 -4.02901,0 c -13.14371,0 -21.27947,10.6943 -30.69933,23.0727 -10.47369,13.7667 -22.34398,29.3703 -43.40119,29.3703 l -11.93145,0 0,-15.9618 11.93145,0 c 13.14586,0 21.27978,-10.695 30.701,-23.0733 10.47179,-13.763 22.34451,-29.3699 43.39952,-29.3699 l 4.02901,0 z"
       id="path2990-8" />
    <rect
       style="fill:#800080;fill-opacity:1;stroke:none"
       id="rect3047-2"
       width="128"
       height="128"
       x="-102.89088"
       y="789.36206" />
    <path
       inkscape:connector-curvature="0"
       style="fill:#b3b3b3"
       d="m -6.3841484,858.5625 23.9411904,20.5193 -23.9411904,20.5184 0,-13.6791 -4.0289696,0 c -12.72289,0 -22.09196,-5.702 -29.82584,-13.2481 2.98481,-3.51 5.68825,-7.0516 8.20013,-10.3565 0.58114,-0.7618 1.1548,-1.5172 1.7306,-2.2685 5.71977,5.9214 11.87266,9.9153 19.89511,9.9153 l 4.0289696,0 z"
       id="path3035-45" />
    <path
       inkscape:connector-curvature="0"
       style="fill:#b3b3b3"
       d="m -96.445178,817.5193 11.93121,0 c 12.14347,0 21.23073,5.1978 28.75925,12.2326 -2.54868,3.0757 -4.90554,6.165 -7.13202,9.0942 -0.91138,1.2003 -1.81767,2.3869 -2.71355,3.5487 -5.44637,-5.3645 -11.34881,-8.9131 -18.91368,-8.9131 l -11.93121,0 z"
       id="path3033-5" />
    <path
       inkscape:connector-curvature="0"
       style="fill:#ffffff;fill-opacity:1"
       d="m -6.3841984,802.7731 23.9412404,20.5191 -23.9412404,20.5232 0,-11.474 -4.0289996,0 c -13.14372,0 -21.27948,10.6943 -30.69934,23.0728 -10.47369,13.7666 -22.34398,29.3702 -43.40119,29.3702 l -11.93145,0 0,-15.9618 11.93145,0 c 13.14586,0 21.27978,-10.6949 30.701,-23.0733 10.47179,-13.763 22.34452,-29.3698 43.39953,-29.3698 l 4.0289996,0 z"
       id="path2990-1" />
    <rect
       style="fill:#333333;fill-opacity:1;stroke:none"
       id="rect3047-7"
       width="128"
       height="128"
       x="44.591396"
       y="790.87738" />
    <path
       inkscape:connector-curvature="0"
       style="fill:#808080"
       d="m 141.09812,860.07769 23.94119,20.51938 -23.94119,20.5184 0,-13.6791 -4.02896,0 c -12.7229,0 -22.09196,-5.702 -29.82585,-13.2481 2.98481,-3.51 5.68825,-7.0516 8.20014,-10.35659 0.58113,-0.76173 1.1548,-1.51712 1.73059,-2.26845 5.71977,5.92144 11.87266,9.91534 19.89512,9.91534 l 4.02896,0 z"
       id="path3035-1" />
    <path
       inkscape:connector-curvature="0"
       style="fill:#808080"
       d="m 51.037092,819.03454 11.931214,0 c 12.143466,0 21.230724,5.1978 28.759249,12.23255 -2.548682,3.0757 -4.905538,6.16502 -7.13202,9.09428 -0.911379,1.20022 -1.817668,2.38685 -2.713557,3.54862 -5.446362,-5.36449 -11.348808,-8.91311 -18.913672,-8.91311 l -11.931214,0 z"
       id="path3033-1" />
    <path
       inkscape:connector-curvature="0"
       style="fill:#ffffff;fill-opacity:1"
       d="m 141.09807,804.28829 23.94124,20.51917 -23.94124,20.52317 0,-11.47396 -4.029,0 c -13.14372,0 -21.27948,10.6943 -30.69934,23.07275 -10.473683,13.76665 -22.343973,29.37025 -43.401188,29.37025 l -11.93145,0 0,-15.9618 11.93145,0 c 13.145863,0 21.279785,-10.69494 30.701,-23.0733 10.471788,-13.763 22.344518,-29.36984 43.399528,-29.36984 l 4.029,0 z"
       id="path2990-5" />
    <rect
       style="fill:#ffffff;fill-opacity:1;stroke:none"
       id="rect3047-9-2-4-2"
       width="128"
       height="128"
       x="0"
       y="924.36218"
       inkscape:export-xdpi="90"
       inkscape:export-ydpi="90" />
    <path
       inkscape:connector-curvature="0"
       style="fill:#b3b3b3"
       d="m 97.059916,995.73788 23.941184,20.51952 -23.941184,20.5184 0,-13.6791 -4.02896,0 c -12.72289,0 -22.09196,-5.702 -29.82584,-13.2481 2.98481,-3.51 5.68825,-7.0516 8.20013,-10.35672 0.58113,-0.7618 1.1548,-1.5171 1.7306,-2.2685 5.71977,5.92162 11.87265,9.91552 19.89511,9.91552 l 4.02896,0 z"
       id="path3035-4-7-2-1" />
    <path
       inkscape:connector-curvature="0"
       style="fill:#b3b3b3"
       d="m 6.9988965,954.69478 11.9312095,0 c 12.14347,0 21.23072,5.1978 28.75925,12.2326 -2.54868,3.0757 -4.90554,6.165 -7.13202,9.0943 -0.91138,1.2002 -1.81767,2.3868 -2.71356,3.5486 -5.44636,-5.3645 -11.34881,-8.9131 -18.91367,-8.9131 l -11.9312094,0 z"
       id="path3033-8-6-3-6" />
    <path
       inkscape:connector-curvature="0"
       style="fill:#0000ff;fill-opacity:1"
       d="m 97.059876,939.94858 23.941224,20.5192 -23.941224,20.523 0,-11.4738 -4.02901,0 c -13.14371,0 -21.27947,10.6942 -30.69933,23.0726 -10.47369,13.76682 -22.34398,29.37042 -43.40119,29.37042 l -11.9314494,0 0,-15.9618 11.9314494,0 c 13.14586,0 21.27978,-10.69512 30.701,-23.07342 10.47179,-13.7629 22.34451,-29.3698 43.39952,-29.3698 l 4.02901,0 z"
       id="path2990-8-1-2-8" />
  </g>
</svg>
